<?xml version="1.0" encoding="UTF-8"?>
<svg id="Layer_1" data-name="Layer 1" xmlns="http://www.w3.org/2000/svg" viewBox="0 0 296.82 193.91">
  <path d="M57.44,29.51c-54.76,42.67-50.68,97.89.1,135.28,50.78,37.39,133.06,37.45,183.78.14,50.72-37.32,50.68-97.89-.1-135.28-50.78-37.39-134.11-38.84-183.78-.14Z" style="fill: none; stroke: #231f20; stroke-miterlimit: 10; stroke-width: 2.07px;"/>
  <path d="M60.13,167.26s-8.52,2.06-12.14,1.34c-3.63-.72-14.03-6.59-14.03-6.59,9-3.53,17.62.21,26.18,5.25Z" style="fill: none; stroke: #231f20; stroke-miterlimit: 10; stroke-width: 2.07px;"/>
  <path d="M68.23,171.85c-.1-.07-4.23-4.95-3.98-20.94-1.12-5.78-3.94-8.87-3.94-8.87,0,0-4.55,6.54-5.89,10.15-1.4,3.78,5.44,13.54,13.81,19.66Z" style="fill: none; stroke: #231f20; stroke-miterlimit: 10; stroke-width: 2.07px;"/>
  <path d="M52.36,161.5s-.5-12.44-1.31-14.82-5.29-6.66-5.29-6.66c0,0-3.54,5.16-2.83,8.85s9.42,12.63,9.42,12.63Z" style="fill: none; stroke: #231f20; stroke-miterlimit: 10; stroke-width: 2.07px;"/>
  <path d="M40.95,150.3s-2.21-4.2-.57-7.01c1.64-2.81.28-7.06.28-7.06-3.19.81-4.85,3.19-6.14,5.96l6.43,8.11Z" style="fill: none; stroke: #231f20; stroke-miterlimit: 10; stroke-width: 2.07px;"/>
  <path d="M46.73,157.37s-13.22,1.37-18,.42-2.73.24-8.98-3.55c-6.46-3.91-9.85-13.01-8.26-13.68,0,0,6.29.17,10.45,1.23,4.17,1.06,24.78,15.58,24.78,15.58Z" style="fill: none; stroke: #231f20; stroke-miterlimit: 10; stroke-width: 2.07px;"/>
  <path d="M32.52,141.76s-11.43-4.03-14.39-6.2-1.14-5.24-1.14-5.24c0,0,3.16.13,6.09,1.43,2.93,1.3,9.44,10.02,9.44,10.02Z" style="fill: none; stroke: #231f20; stroke-miterlimit: 10; stroke-width: 2.07px;"/>
  <path d="M33.89,140.75l-1.6-6s1.25-3.66,2.65-6.5c4.91-9.95-3.65-17.57-3.65-17.57,0,0-5.23,6.98-6.26,11.53s8.85,18.54,8.85,18.54Z" style="fill: none; stroke: #231f20; stroke-miterlimit: 10; stroke-width: 2.07px;"/>
  <path d="M24.98,129.26s-6.82-.28-17.42-7.26c-10.61-6.98-5.08-18.48-5.08-18.48,0,0,3.37,7.12,10.04,11.75,6.66,4.64,12.46,13.99,12.46,13.99Z" style="fill: none; stroke: #231f20; stroke-miterlimit: 10; stroke-width: 2.07px;"/>
  <path d="M20.16,116.92s-2.99-11.36-5.49-12.98c-2.5-1.62-5.04-2.43-5.04-2.43,0,0-1.21,5.92,1.93,8.24,3.14,2.32,8.6,7.18,8.6,7.18Z" style="fill: none; stroke: #231f20; stroke-miterlimit: 10; stroke-width: 2.07px;"/>
  <path d="M20.93,116.35l4.8-4.01s5.87-4.21,6.44-9.6c.57-5.39-.61-10.72-.61-10.72,0,0-7.95,6.14-10.23,9.77s-.4,14.56-.4,14.56Z" style="fill: none; stroke: #231f20; stroke-miterlimit: 10; stroke-width: 2.07px;"/>
  <path d="M17.18,102.62s-9.3-5.73-13.09-13.54c-3.79-7.82,1.25-13.99,1.25-13.99,0,0,4.45,5.73,7.81,9.89,3.36,4.16,4.03,17.64,4.03,17.64Z" style="fill: none; stroke: #231f20; stroke-miterlimit: 10; stroke-width: 2.07px;"/>
  <path d="M18.35,97.78s3.86-1.62,6.44-5.14,2.84-7.18,2.84-7.18c-2.69.1-9.81,2.65-9.28,12.31h0Z" style="fill: none; stroke: #231f20; stroke-miterlimit: 10; stroke-width: 2.07px;"/>
  <path d="M19.84,86.18s9.33-4.81,14.9-9.87,3.07-13.93,3.07-13.93c0,0-6.67,1.84-9.39,4.69-2.73,2.85-8.58,19.11-8.58,19.11Z" style="fill: none; stroke: #231f20; stroke-miterlimit: 10; stroke-width: 2.07px;"/>
  <path d="M18.32,86.19s-2.82-4.2-6.83-11.4c-4.02-7.2-3.37-4.33-4.02-9.33s6.86-11.25,6.86-11.25c10.19,15.61,2.12,13.4,3.99,31.98Z" style="fill: none; stroke: #231f20; stroke-miterlimit: 10; stroke-width: 2.07px;"/>
  <path d="M29.81,60.13s12.47-.89,15.96-2.27,9.17-7.27,9.17-7.27c0,0-7.92-2.86-12.91-.59-4.98,2.28-12.22,10.13-12.22,10.13Z" style="fill: none; stroke: #231f20; stroke-miterlimit: 10; stroke-width: 2.07px;"/>
  <path d="M25.14,65.88c-2.06-.18-4-8.33-3.31-16.32.7-8.09,10.56-12.41,10.56-12.41,3.15,6.51-2.48,21.38-6.07,26.66l-1.18,2.07Z" style="fill: none; stroke: #231f20; stroke-miterlimit: 10; stroke-width: 2.07px;"/>
  <path d="M38.42,45.96s1-11.74,1.71-17.36c.72-5.62,13.48-11.9,13.48-11.9,0,0,2.37,6.17,1.33,9.57-1.04,3.4-16.52,19.69-16.52,19.69Z" style="fill: none; stroke: #231f20; stroke-miterlimit: 10; stroke-width: 2.07px;"/>
  <path d="M40.54,45.8s4.23,1.15,12.24.23c8.01-.91,12.29-10.18,12.29-10.18,0,0-3.27.39-6.87,1.02-3.6.63-17.66,8.92-17.66,8.92Z" style="fill: none; stroke: #231f20; stroke-miterlimit: 10; stroke-width: 2.07px;"/>
  <path d="M59.28,27.99s2.42-7.14,6.01-12.41c3.59-5.27,9.67-7.12,9.67-7.12,0,0-1.07,6.56-2.85,9.35s-12.83,10.18-12.83,10.18Z" style="fill: none; stroke: #231f20; stroke-miterlimit: 10; stroke-width: 2.07px;"/>
  <path d="M57.45,30.22s8.06.97,10.81.4,8.35-4.53,8.35-4.53c0,0-4.97-1.77-8.06-1.3s-11.1,5.44-11.1,5.44Z" style="fill: none; stroke: #231f20; stroke-miterlimit: 10; stroke-width: 2.07px;"/>
  <path d="M231.37,172.63s8.74,2.37,12.55,1.73c3.81-.64,14.93-6.43,14.93-6.43-9.17-3.91-18.32-.28-27.48,4.7Z" style="fill: none; stroke: #231f20; stroke-miterlimit: 10; stroke-width: 2.07px;"/>
  <path d="M220.36,177.16c0-.84,7.02-5.01,7.59-21.56,1.47-5.95,4.56-9.07,4.56-9.07,0,0,4.38,6.89,5.59,10.67,1.26,3.95-8.73,13.86-17.75,19.95Z" style="fill: none; stroke: #231f20; stroke-miterlimit: 10; stroke-width: 2.07px;"/>
  <path d="M239.67,165.31c-.48-1.62,1.78-12.09,2.84-13.82,1.36-2.2,5.49-6.42,5.49-6.42,0,0,3.36,5.25,2.53,8.9-.84,3.64-10.86,11.34-10.86,11.34Z" style="fill: none; stroke: #231f20; stroke-miterlimit: 10; stroke-width: 2.07px;"/>
  <path d="M252.19,155.62s2.52-4.28.96-7.23c-1.56-2.95.08-7.31.08-7.31,3.27.93,4.87,3.43,6.06,6.34l-7.1,8.21Z" style="fill: none; stroke: #231f20; stroke-miterlimit: 10; stroke-width: 2.07px;"/>
  <path d="M245.81,162.77s13.67,1.79,18.68.94c5.01-.85,2.82.32,9.51-3.42,6.91-3.86,10.92-13.19,9.3-13.92,0,0-6.54,0-10.93.98-4.39.98-26.56,15.42-26.56,15.42Z" style="fill: none; stroke: #231f20; stroke-miterlimit: 10; stroke-width: 2.07px;"/>
  <path d="M261.4,147.02s12.09-3.85,15.28-6.01c3.19-2.17,1.46-5.39,1.46-5.39,0,0-3.29.04-6.41,1.31s-10.34,10.1-10.34,10.1Z" style="fill: none; stroke: #231f20; stroke-miterlimit: 10; stroke-width: 2.07px;"/>
  <path d="M260.03,145.93l1.97-6.16s-1.11-3.83-2.41-6.8c-4.58-10.43,4.72-18.08,4.72-18.08,0,0,5.07,7.37,5.9,12.1s-10.18,18.94-10.18,18.94Z" style="fill: none; stroke: #231f20; stroke-miterlimit: 10; stroke-width: 2.07px;"/>
  <path d="M269.9,134.29s7.1-.1,18.49-7.02c11.39-6.92,6.25-18.98,6.25-18.98,0,0-3.88,7.27-11.05,11.88-7.17,4.61-13.68,14.12-13.68,14.12Z" style="fill: none; stroke: #231f20; stroke-miterlimit: 10; stroke-width: 2.07px;"/>
  <path d="M279.65,88.18s.39-11.57,2.49-13.48,4.42-3.01,4.42-3.01c0,0,2.53,5.69-.05,8.36-2.58,2.67-6.86,8.13-6.86,8.13Z" style="fill: none; stroke: #231f20; stroke-miterlimit: 10; stroke-width: 2.07px;"/>
  <path d="M274.78,121.05l-4.32-3.92s-5.37-4.12-5.33-9.44c.04-5.32,1.81-10.59,1.81-10.59,0,0,7.23,6.01,9.08,9.58,1.85,3.57-1.24,14.38-1.24,14.38Z" style="fill: none; stroke: #231f20; stroke-miterlimit: 10; stroke-width: 2.07px;"/>
  <path d="M279.4,106.95s9.96-5.66,14.31-13.65c4.35-7.98-.56-14.51-.56-14.51,0,0-4.92,5.81-8.63,10.01-3.71,4.21-5.11,18.14-5.11,18.14Z" style="fill: none; stroke: #231f20; stroke-miterlimit: 10; stroke-width: 2.07px;"/>
  <path d="M278.44,101.91s-3.93-1.78-6.42-5.5c-2.49-3.71-2.57-7.51-2.57-7.51,2.79.18,10.05,3.02,8.99,13h0Z" style="fill: none; stroke: #231f20; stroke-miterlimit: 10; stroke-width: 2.07px;"/>
  <path d="M276.07,117.58s7.81-1.74,9.92-3.52c2.11-1.78,5.26-9.4,5.26-9.4-9.28.94-12.75,6.52-15.18,12.92Z" style="fill: none; stroke: #231f20; stroke-miterlimit: 10; stroke-width: 2.07px;"/>
  <text/>
  <g>
    <path d="M57.53,91.29c-.73,0-2.12,1.26-2.91,2.05v11.25c0,2.25.86,4.24,3.18,4.7,1.26.2,1.59.46,1.59,1.12,0,.53-.46.93-1.32.93-1.32,0-6.55-.53-8.34-.53s-5.76.53-7.15.53c-.79,0-1.32-.4-1.32-.93,0-.66.33-.93,1.65-1.12,2.25-.4,3.18-2.45,3.18-4.7v-29.26c0-2.25-.93-4.3-3.18-4.7-1.32-.2-1.65-.46-1.65-1.13,0-.53.53-.93,1.32-.93,1.39,0,5.3.6,7.15.6s7.02-.6,8.34-.6c.86,0,1.32.4,1.32.93,0,.66-.33.93-1.59,1.13-2.32.46-3.18,2.45-3.18,4.7v14.17c4.44-3.38,12.31-11.85,13.83-13.83,1.59-2.12,2.32-3.31,2.32-4.04s-.53-.99-1.99-1.19c-.66-.07-.93-.46-.93-.93s.33-.79,1.06-.79c1.13,0,4.77.13,6.69.13,4.44,0,5.76-.27,7.41-.27.86,0,1.39.2,1.39.99,0,.66-.13,1.06-1.59,1.32-2.32.46-3.77.86-6.95,3.57-3.11,2.71-11.25,10.19-11.25,10.86,0,.73,13.24,18.27,14.23,19.46,2.32,2.65,4.04,4.04,6.35,4.5,1.46.26,1.65.4,1.65,1.06,0,.79-.6.99-1.39.99-1.72,0-3.64-.26-8.14-.26-1.85,0-8.21.13-9.33.13-.73,0-1.06-.33-1.06-.79s.27-.86.99-.93c1.39-.2,1.92-.46,1.92-1.19s-.73-1.92-2.25-4.04c0,0-9-12.97-10.06-12.97Z" style="fill: #231f20;"/>
    <path d="M116.18,69.98c1.13,2.78,10.99,25.62,15.29,34.49,1.13,2.38,2.12,4.37,4.44,4.83,1.46.26,1.65.4,1.65,1.06,0,.79-.6.99-1.72.99-1.39,0-5.23-.26-9.66-.26-1.92,0-4.44.13-5.56.13-.73,0-1.06-.33-1.06-.79s.26-.79.99-.93c.79-.13,1.92-.53,1.92-1.46,0-.6-1.19-3.97-2.85-8.08h-17.41c-1.13,3.31-1.92,6.02-1.92,7.08,0,1.52.93,2.25,2.32,2.45.66.07.99.46.99.93s-.4.79-1.12.79c-1.13,0-2.98-.13-4.9-.13-4.44,0-5.69.26-7.41.26-.86,0-1.39-.2-1.39-.99,0-.66.2-.79,1.65-1.06,2.25-.46,3.11-1.72,4.3-4.04,2.32-4.43,9.2-19.59,16.61-35.21.6-1.26.99-1.99,2.45-1.99s1.85.73,2.38,1.92ZM103.54,96.46h14.69c-2.85-7.15-6.22-15.03-6.75-15.95-.2-.4-.33-.6-.66-.6s-.6.33-.73.66c-1.79,3.77-4.43,10.26-6.55,15.89Z" style="fill: #231f20;"/>
    <path d="M147.69,110.02c-1.13-2.71-10.99-25.55-15.29-34.49-1.13-2.32-2.18-4.3-4.44-4.77-1.46-.26-1.65-.46-1.65-1.06,0-.79.53-.99,1.65-.99,1.46,0,5.3.26,9.73.26,1.92,0,4.44-.2,5.56-.2.73,0,1.06.33,1.06.86,0,.46-.26.79-.99.93-.79.07-1.92.46-1.92,1.46,0,1.85,10.26,25.88,11.19,27.54.2.4.33.53.66.53s.6-.26.73-.6c3.24-7.02,9.6-23.37,9.6-26.48,0-1.59-.93-2.32-2.32-2.45-.66-.07-.99-.46-.99-.93,0-.53.33-.86,1.13-.86,1.12,0,2.98.2,4.83.2,4.5,0,5.76-.26,7.48-.26.79,0,1.39.2,1.39.99,0,.6-.2.79-1.65,1.06-2.32.46-3.11,1.65-4.3,3.97-2.32,4.43-9.2,19.66-16.61,35.21-.6,1.32-.99,2.05-2.45,2.05s-1.85-.73-2.38-1.99Z" style="fill: #231f20;"/>
    <path d="M197.53,68.06c14.23,0,24.76,8.21,24.76,22.04s-10.52,21.98-24.76,21.98-24.69-8.08-24.69-21.98,10.52-22.04,24.69-22.04ZM197.53,108.83c8.27,0,15.03-7.48,15.03-18.86s-6.75-18.93-15.03-18.93-14.96,7.55-14.96,18.93,6.75,18.86,14.96,18.86Z" style="fill: #231f20;"/>
    <path d="M235.26,76.27c0,9,24.43,8.8,24.43,21.51,0,8.94-7.81,14.23-15.95,14.23-5.43,0-9.2-1.99-11.25-2.45-1.32-.33-2.78-.33-3.57-.33s-1.19-.4-1.19-1.92c0-1.12.4-3.31.4-4.83-.07-2.25-.33-4.17-.33-4.63,0-.73.6-.99,1.12-.99.79,0,1.06,1.06,1.39,1.99,2.25,6.22,7.28,10,13.77,10,5.69,0,8.27-3.91,8.27-6.75,0-10.13-25.09-9.73-25.09-21.98,0-9.4,9.53-11.98,15.03-11.98s7.68,1.26,9.13,1.26,2.52-.53,3.31-.53,1.26.6,1.26,2.12c0,2.91.73,8.01.73,8.94,0,.73-.53.93-1.06.93-.86,0-1.26-1.06-1.72-1.99-2.52-4.77-5.49-7.41-11.98-7.41-3.97,0-6.69,1.79-6.69,4.83Z" style="fill: #231f20;"/>
  </g>
  <g>
    <path d="M55.54,126.86c-.59,0-1.14-.13-1.64-.36-.43.23-.93.36-1.46.36-1.8,0-2.9-1.26-3.21-3.4l.93-.39c.07.58.19,1.07.35,1.48,1.23-1.1,2.06-2.88,2.27-5.29l1-.17c-.06,2.78,1.49,3.52,1.49,5.14,0,.61-.2,1.16-.55,1.59.3.09.62.13.94.13.83,0,1.9-.45,2.87-1.2l.2.88c-.94.74-2.13,1.23-3.19,1.23ZM52.44,125.95c.94,0,1.85-.64,1.85-1.72,0-.84-.64-1.51-1.06-2.65-.48,1.56-1.25,2.81-2.3,3.69.38.46.9.68,1.51.68Z" style="fill: #231f20;"/>
    <path d="M71.98,125.63c-.96.74-2.07,1.23-3.13,1.23-1.45,0-2.29-.83-2.04-2.56l.35-2.4c.19-1.35-.22-1.74-.81-1.74s-1.91.77-2.45,4.17l-.33,2.39h-.97l.68-4.82c.19-1.35-.22-1.74-.83-1.74s-1.94.77-2.46,4.2l-.33,2.36h-.97l1.03-7.31h.97l-.19,1.35c.71-1.14,1.56-1.49,2.22-1.49.97,0,1.49.64,1.58,1.64.74-1.26,1.64-1.64,2.32-1.64,1.23,0,1.74,1.04,1.52,2.52l-.35,2.52c-.19,1.25.39,1.65,1.19,1.65.84,0,1.84-.45,2.79-1.2l.22.88Z" style="fill: #231f20;"/>
    <path d="M81.58,125.63c-.96.74-2.13,1.23-3.19,1.23s-1.77-.41-2.04-1.23c-.64.93-1.48,1.23-2.19,1.23-1.36,0-2.36-.96-2.36-2.9,0-2.84,1.82-4.71,3.78-4.71.81,0,1.55.2,2.27.61l-.35,2.51-.27,1.93c-.17,1.25.46,1.65,1.27,1.65s1.9-.45,2.87-1.2l.2.88ZM76.39,123.36l.14-.98.28-1.93c-.42-.2-.81-.29-1.29-.29-1.43,0-2.71,1.55-2.71,3.78,0,1.36.62,2.03,1.45,2.03.67,0,1.74-.43,2.13-2.61Z" style="fill: #231f20;"/>
    <path d="M86.89,125.63c-.94.74-2.13,1.23-3.19,1.23-1.46,0-2.37-.83-2.11-2.56l1.17-8.44h.97l-1.19,8.44c-.17,1.25.46,1.65,1.27,1.65s1.9-.45,2.87-1.2l.2.88Z" style="fill: #231f20;"/>
    <path d="M90.51,126.43c-.55.29-1.12.43-1.65.43-1.3,0-2.22-.83-1.96-2.56l1.17-8.44h.97l-1.19,8.44c-.17,1.25.46,1.65,1.13,1.65.43,0,.97-.14,1.52-.46v.94Z" style="fill: #231f20;"/>
    <path d="M101.69,126.86c-.77,0-1.53-.19-2.23-.59-.56.39-1.19.59-1.84.59-.48,0-.93-.07-1.36-.2l-.42,2.95h-.97l1.43-10.21h.97l-.17,1.26c.68-1.01,1.54-1.4,2.23-1.4,1.23,0,2.07.93,2.07,2.84,0,1.46-.46,2.66-1.17,3.49.46.25,1,.36,1.58.36.94,0,2.01-.45,2.97-1.2l.22.88c-.96.74-2.13,1.23-3.3,1.23ZM97.68,125.97c1.43,0,2.71-1.55,2.71-3.78,0-1.35-.51-2.03-1.3-2.03-.67,0-1.93.74-2.37,3.3l-.32,2.21c.42.2.8.29,1.29.29Z" style="fill: #231f20;"/>
    <path d="M110.02,125.63c-.94.74-2.13,1.23-3.19,1.23-1.46,0-2.37-.83-2.11-2.56l1.17-8.44h.97l-1.19,8.44c-.17,1.25.46,1.65,1.27,1.65s1.9-.45,2.87-1.2l.2.88Z" style="fill: #231f20;"/>
    <path d="M119.04,125.63c-.96.74-2.13,1.23-3.19,1.23s-1.77-.41-2.04-1.23c-.64.93-1.48,1.23-2.19,1.23-1.36,0-2.36-.96-2.36-2.9,0-2.84,1.82-4.71,3.78-4.71.81,0,1.55.2,2.27.61l-.35,2.51-.27,1.93c-.17,1.25.46,1.65,1.27,1.65s1.9-.45,2.87-1.2l.2.88ZM113.85,123.36l.14-.98.28-1.93c-.42-.2-.81-.29-1.29-.29-1.43,0-2.71,1.55-2.71,3.78,0,1.36.62,2.03,1.45,2.03.67,0,1.74-.43,2.13-2.61Z" style="fill: #231f20;"/>
    <path d="M117.52,119.41h1.42l.33-2.36.98-.17-.35,2.53h2.32l-.29.91h-2.16l-.56,3.98c-.38,2.66,3.46,1.59,4.87.45l.2.88c-1.84,1.48-6.53,2.2-6.02-1.33l.55-3.98h-1.59l.3-.91Z" style="fill: #231f20;"/>
    <path d="M132.69,125.63c-3.11,2.4-8.67,2.52-8.67-1.82,0-2.59,1.43-4.55,3.33-4.55s2.52,1.71,1.97,4.23h-4.27c-.01.1-.01.22-.01.32,0,3.36,4.49,3.19,7.46.94l.2.88ZM125.13,122.69h3.32c.23-1.48-.01-2.53-1.16-2.53s-1.9,1.04-2.16,2.53Z" style="fill: #231f20;"/>
    <path d="M137.74,124.23c0,1.51-1.26,2.63-2.82,2.63-1.8,0-2.9-1.26-3.22-3.4l.93-.39c.07.58.19,1.07.35,1.48,1.23-1.1,2.06-2.88,2.27-5.29l1-.17c-.06,2.78,1.49,3.52,1.49,5.14ZM136.77,124.23c0-.84-.64-1.51-1.06-2.65-.48,1.56-1.25,2.81-2.3,3.69.38.46.9.68,1.51.68.94,0,1.85-.64,1.85-1.72Z" style="fill: #231f20;"/>
    <path d="M144.72,126.39l-.45,3.23h-.97l1.3-9.3h-1.59l.3-.91h1.42l.16-1.12c.29-2.07,1.74-2.95,3.21-2.43l.04.96c-1.4-.57-2.13.32-2.3,1.56l-.14,1.03h2.32l-.29.91h-2.16l-.06.42-.52,3.75c-.17,2.42,3.5,1.38,4.88.26l.2.88c-1.3,1.04-4.05,1.72-5.36.75Z" style="fill: #231f20;"/>
    <path d="M156.97,125.63c-.99.77-2.13,1.09-3.3,1.09h-4.79l.64-4.53-1.06-2.78h1.03l.65,1.81c.64-1.29,1.55-1.95,2.53-1.95,1.07,0,1.74.8,1.52,2.24l-.2,1.43-.98.19.23-1.59c.14-1.06-.23-1.38-.75-1.38s-1.71.55-2.14,3.06l-.36,2.59h3.81c1.04,0,1.98-.26,2.98-1.06l.2.88Z" style="fill: #231f20;"/>
    <path d="M162.3,123.14c-.3,2.04-1.72,3.72-3.56,3.72-1.61,0-2.49-1.29-2.49-3.01,0-2.42,1.55-4.59,3.65-4.59,1.36,0,2.19.91,2.42,2.24.42,1.77,2.42,1.12,3.97-.09l.22.88c-1.17.91-3.07,1.71-4.2.84ZM161.38,122.35c0-1.22-.54-2.17-1.55-2.17-1.49,0-2.56,1.69-2.56,3.62,0,1.22.52,2.16,1.55,2.16,1.49,0,2.56-1.69,2.56-3.61Z" style="fill: #231f20;"/>
    <path d="M177,125.49v.94c-.56.29-1.13.43-1.65.43-1.3,0-2.22-.83-1.97-2.56l.35-2.4c.19-1.35-.22-1.74-.81-1.74-.62,0-1.91.77-2.45,4.17l-.33,2.39h-.97l.68-4.82c.19-1.35-.22-1.74-.83-1.74s-1.94.77-2.46,4.2l-.33,2.36h-.97l1.03-7.31h.97l-.19,1.35c.71-1.14,1.56-1.49,2.22-1.49.97,0,1.49.64,1.58,1.64.74-1.26,1.64-1.64,2.32-1.64,1.23,0,1.74,1.04,1.52,2.52l-.35,2.52c-.19,1.25.46,1.65,1.13,1.65.42,0,.96-.14,1.52-.46Z" style="fill: #231f20;"/>
    <path d="M188.42,123.14c-.3,2.04-1.72,3.72-3.56,3.72-1.61,0-2.49-1.29-2.49-3.01,0-2.42,1.55-4.59,3.65-4.59,1.36,0,2.19.91,2.42,2.24.42,1.77,2.42,1.12,3.97-.09l.22.88c-1.17.91-3.07,1.71-4.2.84ZM187.5,122.35c0-1.22-.54-2.17-1.55-2.17-1.49,0-2.56,1.69-2.56,3.62,0,1.22.52,2.16,1.55,2.16,1.49,0,2.56-1.69,2.56-3.61Z" style="fill: #231f20;"/>
    <path d="M198.82,123.53c-.61,0-1.1-.14-1.46-.45-.51,2.45-1.72,3.78-3.46,3.78-1.26,0-2.13-.81-1.88-2.61l.69-4.85h.96l-.68,4.82c-.17,1.25.29,1.74,1.01,1.74,1.1,0,2.14-.9,2.52-3.59l.42-2.97h.96l-.2,1.51c-.19,1.3.45,1.71,1.25,1.71.84,0,1.91-.45,2.87-1.2l.2.88c-.94.74-2.13,1.23-3.19,1.23Z" style="fill: #231f20;"/>
    <path d="M209.81,125.63c-3.11,2.4-8.67,2.52-8.67-1.82,0-2.59,1.43-4.55,3.33-4.55s2.52,1.71,1.97,4.23h-4.27c-.01.1-.01.22-.01.32,0,3.36,4.49,3.19,7.46.94l.2.88ZM202.25,122.69h3.32c.23-1.48-.01-2.53-1.16-2.53s-1.9,1.04-2.16,2.53Z" style="fill: #231f20;"/>
    <path d="M217.59,125.63c-.99.77-2.13,1.09-3.3,1.09h-4.79l.64-4.53-1.06-2.78h1.03l.65,1.81c.64-1.29,1.55-1.95,2.53-1.95,1.07,0,1.74.8,1.52,2.24l-.2,1.43-.98.19.23-1.59c.14-1.06-.23-1.38-.75-1.38s-1.71.55-2.14,3.06l-.36,2.59h3.81c1.04,0,1.98-.26,2.98-1.06l.2.88Z" style="fill: #231f20;"/>
    <path d="M222.91,126.86c-.59,0-1.14-.13-1.64-.36-.43.23-.93.36-1.46.36-1.8,0-2.9-1.26-3.21-3.4l.93-.39c.07.58.19,1.07.35,1.48,1.23-1.1,2.06-2.88,2.27-5.29l1-.17c-.06,2.78,1.49,3.52,1.49,5.14,0,.61-.2,1.16-.55,1.59.3.09.62.13.94.13.83,0,1.9-.45,2.87-1.2l.2.88c-.94.74-2.13,1.23-3.19,1.23ZM219.82,125.95c.94,0,1.85-.64,1.85-1.72,0-.84-.64-1.51-1.06-2.65-.48,1.56-1.25,2.81-2.3,3.69.38.46.9.68,1.51.68Z" style="fill: #231f20;"/>
    <path d="M234.15,125.63c-3.11,2.4-8.67,2.52-8.67-1.82,0-2.59,1.43-4.55,3.33-4.55s2.52,1.71,1.97,4.23h-4.27c-.01.1-.01.22-.01.32,0,3.36,4.49,3.19,7.46.94l.2.88ZM226.59,122.69h3.32c.23-1.48-.01-2.53-1.16-2.53s-1.9,1.04-2.16,2.53Z" style="fill: #231f20;"/>
    <path d="M243.76,125.63c-.96.74-2.13,1.23-3.19,1.23s-1.77-.41-2.04-1.23c-.64.93-1.48,1.23-2.19,1.23-1.36,0-2.36-.96-2.36-2.9,0-2.84,1.82-4.71,3.78-4.71.81,0,1.55.2,2.27.61l-.35,2.51-.28,1.93c-.17,1.25.46,1.65,1.27,1.65s1.9-.45,2.87-1.2l.2.88ZM238.58,123.36l.15-.98.27-1.93c-.42-.2-.81-.29-1.29-.29-1.43,0-2.71,1.55-2.71,3.78,0,1.36.62,2.03,1.45,2.03.67,0,1.74-.43,2.13-2.61Z" style="fill: #231f20;"/>
    <path d="M248.8,124.23c0,1.51-1.26,2.63-2.82,2.63-1.8,0-2.9-1.26-3.21-3.4l.93-.39c.07.58.19,1.07.35,1.48,1.23-1.1,2.06-2.88,2.27-5.29l1-.17c-.06,2.78,1.49,3.52,1.49,5.14ZM247.83,124.23c0-.84-.64-1.51-1.06-2.65-.48,1.56-1.25,2.81-2.3,3.69.38.46.9.68,1.51.68.94,0,1.85-.64,1.85-1.72Z" style="fill: #231f20;"/>
  </g>
  <text/>
  <path d="M277.06,78.04s6.1-9.7,6.16-18.79c.05-9.09-7.36-12.52-7.36-12.52,0,0-1.59,7.44-2.87,12.91-1.28,5.46,4.07,18.41,4.07,18.41Z" style="fill: none; stroke: #231f20; stroke-miterlimit: 10; stroke-width: 2.07px;"/>
  <path d="M279.16,84.49s-3.78-.58-10.11-4.34c-6.33-3.76-7.33-13.32-7.33-13.32,0,0,1.06,1.27,5.37,3.43s12.76,13.26,12.08,14.23Z" style="fill: none; stroke: #231f20; stroke-miterlimit: 10; stroke-width: 2.07px;"/>
  <path d="M268.86,58.12l-3.37-4.4s-4.26-4.79-3.73-9.55c.53-4.76.69-11.09.69-11.09,0,0,7.55,8.81,8.82,12.39,1.27,3.58-2.41,12.64-2.41,12.64Z" style="fill: none; stroke: #231f20; stroke-miterlimit: 10; stroke-width: 2.07px;"/>
  <path d="M271.05,62.59c-.62,1.74-7.74.18-14.13-3.65-6.46-3.87-7.74-14.32-7.74-14.32,6.06-.16,16.94,10.79,20.44,16.1l1.43,1.87Z" style="fill: none; stroke: #231f20; stroke-miterlimit: 10; stroke-width: 2.07px;"/>
  <path d="M232.96,35.42s8.25,5.37,11.36,6.22c3.11.84,10.42-.52,10.42-.52,0,0-4.69-4.61-8.13-5.74-3.45-1.13-13.64.05-13.64.05Z" style="fill: none; stroke: #231f20; stroke-miterlimit: 10; stroke-width: 2.07px;"/>
  <path d="M257.59,43.48s-1.35-7.6-4.25-13.3c-2.9-5.71-9.01-7.99-9.01-7.99,0,0,.02,6.92,1.43,9.93s11.84,11.36,11.84,11.36Z" style="fill: none; stroke: #231f20; stroke-miterlimit: 10; stroke-width: 2.07px;"/>
</svg>