<?xml version="1.0" encoding="UTF-8"?>
<svg id="Layer_1" data-name="Layer 1" xmlns="http://www.w3.org/2000/svg" viewBox="0 0 186.78 108.49">
  <g>
    <path d="M54.01,43.04l3.98,42.81c.28,3.03,2.8,5.35,5.84,5.39l4.03.05c2.45.03,4.67-1.45,5.58-3.72l3.41-8.48c.91-2.27,3.13-3.75,5.58-3.72h1.06c2.41.04,4.56,1.52,5.45,3.76l3.47,8.77c.89,2.24,2.84,3.48,5.25,3.51l3.47.11c2.99.03,5.74-1.98,6.15-4.94l4.37-42.92c.49-3.54-2.23-6.72-5.81-6.76h0c-3.03-.04-5.6,2.22-5.97,5.22l-.65,18.64c-.36,3.01-2.94,5.26-5.97,5.22l-19.09-.22c-3.05-.04-5.58-2.37-5.85-5.41l-1.64-18.36c-.27-3.04-2.6-5.17-5.65-5.21h-1.42c-3.52-.04-5.94,2.76-5.61,6.27Z"/>
    <polyline points="87.01 33.57 87.02 25.7 87.02 17.65" style="stroke: #fff; stroke-miterlimit: 10; stroke-width: .6px;"/>
    <path d="M88.52,29.93l-3.66,6.43-4.85-6.53c-2.64-3.54-3.35-8.16-1.91-12.34L84.28,0l6.08,16.44c.8,2.84,1.15,4.35.63,7.25-.56,3.13-1.68,4.84-2.47,6.23Z"/>
    <path d="M119.62,41.64l-2.39,44.8c-.13,2.73,2.04,5.02,4.77,5.05l24.14-.09c2.69.03,5.16-1.77,5.16-4.46h0c0-2.67-2.16-4.83-4.82-4.83h-12.56c-2.76-.02-4.95-2.32-4.82-5.08l.19-3.88c.13-2.59,2.28-4.62,4.88-4.59l7.92.09c2.61.03,4.78-2.02,4.88-4.63v-.14c.11-2.68-1.98-4.93-4.66-5.02l-8.09-.26c-2.64-.09-4.72-2.28-4.67-4.92l.04-2.21c.05-2.65,2.23-4.77,4.89-4.73l11.95.14c2.69.03,4.89-2.14,4.89-4.83v-.83c0-2.65-1.82-4.22-4.47-4.25l-22.7-.16c-2.6-.03-4.39,2.23-4.51,4.83Z"/>
    <path d="M156.68,89.31l-.52-50.61c0-1,.83-1.8,1.82-1.79l4.78.06c.74,0,1.41.47,1.67,1.17l9.26,20.6c.71,1.89,3.52,1.36,3.49-.66l-.87-19.29c-.01-1.01.8-1.83,1.8-1.83h6.86c1.01,0,1.82.83,1.8,1.84l-.57,50.45c-.02.98-.7,2.14-1.68,2.14h-6.51c-.7,0-1.26-.78-1.55-1.41l-6.33-13.73c-.81-1.75-3.42-1.19-3.44.73l-.14,12.44c-.01,1-.77,2.1-1.77,2.08h-6.4c-.99-.01-1.73-1.2-1.72-2.19Z"/>
    <g>
      <path d="M11.36,106.72h-3.47s-.48,1.63-.48,1.63h-3.12s3.73-9.9,3.73-9.9h3.34s3.71,9.91,3.71,9.91h-3.2s-.49-1.64-.49-1.64ZM10.73,104.58l-1.09-3.56-1.08,3.56h2.17Z"/>
      <path d="M48.26,98.48h3.06s0,7.47,0,7.47h4.77s0,2.44,0,2.44h-7.83s0-9.91,0-9.91Z"/>
      <path d="M90.8,98.52h3.06s0,7.47,0,7.47h4.77s0,2.44,0,2.44h-7.83s0-9.91,0-9.91Z"/>
      <path d="M129.75,98.55h8.2s0,2.12,0,2.12h-5.13s0,1.57,0,1.57h4.76s0,2.02,0,2.02h-4.76s0,1.95,0,1.95h5.28s0,2.25,0,2.25h-8.35s0-9.91,0-9.91Z"/>
      <path d="M174.47,98.58h2.86s3.72,5.48,3.72,5.48v-5.48s2.89,0,2.89,0v9.9s-2.89,0-2.89,0l-3.7-5.44v5.44s-2.88,0-2.88,0v-9.9Z"/>
    </g>
  </g>
  <path d="M0,49.18v30.03c0,6.79,5.51,12.3,12.3,12.3h23.52c6.79,0,12.3-5.51,12.3-12.3v-30.03c0-6.79-5.51-12.3-12.3-12.3H12.3c-6.79,0-12.3,5.51-12.3,12.3ZM24.76,77.19h-1.4c-6.79,0-12.3-5.51-12.3-12.3v-1.4c0-6.79,5.51-12.3,12.3-12.3h1.4c6.79,0,12.3,5.51,12.3,12.3v1.4c0,6.79-5.51,12.3-12.3,12.3Z"/>
</svg>